<?xml version="1.0" encoding="UTF-8" standalone="no"?>
<svg width="48px" height="40px" viewBox="0 0 48 40" version="1.1" xmlns="http://www.w3.org/2000/svg" xmlns:xlink="http://www.w3.org/1999/xlink">
    <!-- Generator: sketchtool 41.2 (35397) - http://www.bohemiancoding.com/sketch -->
    <title>8323F047-7280-4BB5-AD21-1FAF51099D8D</title>
    <desc>Created with sketchtool.</desc>
    <defs></defs>
    <g id="Symbols" stroke="none" stroke-width="1" fill="none" fill-rule="evenodd">
        <g id="review-large" transform="translate(-123.000000, -500.000000)" fill="#CEF6EF">
            <g id="review">
                <path d="M170.954232,507.409546 C171.055938,507.786514 170.988134,508.146348 170.750821,508.489046 C170.513674,508.831744 170.19144,509.037364 169.784617,509.105903 C163.987393,509.92838 161.054879,512.669967 160.987075,517.330666 L166.224918,517.330666 C166.597756,517.330666 166.919907,517.467745 167.191122,517.741904 C167.462337,518.016063 167.597945,518.341626 167.597945,518.718595 L167.597945,538.560667 C167.597945,538.971905 167.462337,539.314855 167.191122,539.588762 C166.919907,539.863089 166.597756,540 166.224918,540 L149.799449,540 C149.426528,540 149.095735,539.862837 148.807569,539.588762 C148.519403,539.314687 148.37532,538.971905 148.37532,538.560667 L148.37532,521.391726 C148.37532,514.606297 150.019562,509.431299 153.308046,505.867487 C156.59653,502.303423 161.546373,500.350042 168.157077,500.007344 C168.496096,499.973074 168.801213,500.058748 169.072428,500.264367 C169.343892,500.469986 169.513402,500.744145 169.580956,501.086844 L170.954232,507.409546 L170.954232,507.409546 Z M145.578663,507.409546 C145.680369,507.786514 145.612565,508.146348 145.375252,508.489046 C145.104036,508.866014 144.781968,509.071633 144.409048,509.105903 C138.611823,509.92838 135.679309,512.669967 135.611505,517.330666 L140.849348,517.330666 C141.222269,517.330666 141.544337,517.467745 141.815552,517.741904 C142.086768,518.016063 142.222375,518.341626 142.222375,518.718595 L142.222375,538.560667 C142.222375,538.971905 142.086768,539.314855 141.815552,539.588762 C141.544337,539.863089 141.222269,540 140.849348,540 L124.42388,540 C124.050959,540 123.720415,539.862837 123.432249,539.588762 C123.144083,539.314603 123,538.971905 123,538.560667 L123,521.391726 C123,514.606297 124.644242,509.431299 127.932726,505.867487 C131.22121,502.303423 136.170887,500.350042 142.781757,500.007344 C143.120776,499.973074 143.425893,500.058748 143.697108,500.264367 C143.968323,500.469986 144.137832,500.744145 144.205636,501.086844 L145.578663,507.409546 Z" id="icon-quote"></path>
            </g>
        </g>
    </g>
</svg>